<svg width="51" height="50" fill="none" xmlns="http://www.w3.org/2000/svg"><path d="M8.713 32.716h33.272v6.85H8.713v-6.85zm0 0h33.272v-11.02a.012.012 0 00-.013-.012H8.725a.012.012 0 00-.012.012v11.02zM32.56 10.453a3.644 3.644 0 013.648 3.64l-.013-.286.075-.02c3.198 1.08 5.531 4 5.704 7.48l.009.393.002.012a.012.012 0 01-.013.012H8.795a.012.012 0 01-.004-.024l15.682-4.744 4.773-1.3a3.644 3.644 0 013.314-5.163zm0 7.278a3.644 3.644 0 003.648-3.639 3.643 3.643 0 00-3.648-3.639 3.644 3.644 0 00-3.649 3.64 3.643 3.643 0 003.649 3.638z" stroke="#000" stroke-width="1.56" stroke-linejoin="round"/></svg>