<svg width="50" height="51" fill="none" xmlns="http://www.w3.org/2000/svg"><path d="M8.854 13.287h32.348m-32.348 0V35.47h32.348V13.288m-32.348 0v8.872l1.733-.832a4.62 4.62 0 015.198.832 4.067 4.067 0 005.009.492l.768-.492a6.43 6.43 0 016.931 0l.769.492a4.067 4.067 0 005.008-.492 4.62 4.62 0 015.198-.832l1.733.832v-8.873m-25.416 0c1.276 0 2.31-.993 2.31-2.218 0-.816-.77-2.295-2.31-4.436-1.54 2.14-2.31 3.62-2.31 4.436 0 1.225 1.034 2.218 2.31 2.218zm9.242 0c1.277 0 2.311-.993 2.311-2.218 0-.816-.77-2.295-2.31-4.436-1.54 2.14-2.311 3.62-2.311 4.436 0 1.225 1.034 2.218 2.31 2.218zm9.243 0c1.276 0 2.31-.993 2.31-2.218 0-.816-.77-2.295-2.31-4.436-1.54 2.14-2.31 3.62-2.31 4.436 0 1.225 1.034 2.218 2.31 2.218zM8.669 39.905h32.717a4.436 4.436 0 004.437-4.436H4.233a4.436 4.436 0 004.436 4.436z" stroke="#000" stroke-width="1.56" stroke-linejoin="round"/></svg>