<svg width="50" height="50" fill="none" xmlns="http://www.w3.org/2000/svg"><path d="M28.574 9.83c0 1.951-1.596 3.534-3.565 3.534-1.969 0-3.565-1.583-3.565-3.535m7.13 0c0-1.952-1.596-3.535-3.565-3.535-1.969 0-3.565 1.583-3.565 3.535m7.13 0c0 .127-.007.253-.02.377 7.258 1.56 12.752 7.822 13.076 15.41l-.026-.461c.027.19.041.385.041.582 0 2.278-1.862 4.125-4.159 4.125M21.444 9.829c0 .127.007.253.023.375-7.062 1.519-12.452 7.484-13.04 14.791l-.009.133c-.03.199-.045.402-.045.61 0 2.277 1.862 4.124 4.16 4.124m24.953 0c-2.192 0-3.989-1.683-4.147-3.817l-.014-.283-.01.283c-.158 2.134-1.954 3.817-4.147 3.817m8.318 0a4.17 4.17 0 001.743-.379l-2.337 12.163H13.126L10.79 29.483a4.17 4.17 0 001.743.379m24.954 0c-2.297 0-4.159-1.847-4.159-4.125m-20.795 4.125c2.184 0 3.976-1.67 4.146-3.793l.011-.307.014.283c.158 2.134 1.955 3.817 4.147 3.817m-8.318 0c2.297 0 4.16-1.847 4.16-4.125 0 2.278 1.861 4.125 4.158 4.125m0 0c2.193 0 3.989-1.683 4.148-3.817l.01-.283m-4.158 4.1c2.289 0 4.143-1.833 4.157-4.1m0 0l.013.283c.16 2.134 1.956 3.817 4.148 3.817m-4.16-4.1l.001-.025c0 2.278 1.862 4.125 4.16 4.125m0 0c2.296 0 4.158-1.847 4.158-4.125m0 0l.004-.15c-.005.051-.004.1-.004.15zm-.891 7.66l-.594 4.714m-6.536-4.714v4.714m-7.13-4.714l.595 4.714" stroke="#000" stroke-width="1.56" stroke-linejoin="round"/></svg>